<svg width="85" height="90" viewBox="0 0 85 90" fill="none" xmlns="http://www.w3.org/2000/svg">
<path d="M75.751 32.69C76.9604 34.1 77.9812 35.4817 78.9376 36.9142C81.2139 40.3236 83.0638 43.9328 83.83 48.0078C85.6771 57.8266 80.9832 66.4367 71.6989 70.0867C65.4096 72.559 59.0979 72.5196 52.9107 69.6646C49.3172 68.007 46.5473 65.387 44.5422 61.955C44.4597 61.8143 44.3744 61.675 44.2878 61.5371C44.278 61.5217 44.2514 61.516 44.1284 61.4499C44.2374 62.6783 44.3157 63.8476 44.4472 65.0113C44.9477 69.4352 45.6105 73.831 46.813 78.1255C47.6869 81.2465 48.7593 84.2886 50.728 86.9171C51.6383 88.1343 52.7597 89.0981 54.1761 89.7327H30.2103C30.2103 89.7243 30.1977 89.6582 30.2117 89.6525C32.5537 88.6085 33.8834 86.6174 34.9783 84.4336C36.7317 80.9355 37.6811 77.1715 38.4725 73.3625C39.2024 69.8517 39.6778 66.303 40.0637 62.7402C40.0832 62.5573 40.0665 62.3715 40.0665 62.1661C39.7672 62.2618 39.7253 62.5488 39.6036 62.7515C36.1444 68.567 30.9835 71.6796 24.353 72.3423C18.2595 72.9516 12.6777 71.4361 7.82163 67.6735C2.23985 63.3523 -0.251811 57.5438 0.226387 50.4731C0.582938 45.2063 2.82432 40.6641 5.71029 36.3879C6.92815 34.584 8.27886 32.88 9.71065 31.2435C9.85747 31.0747 9.96653 30.8495 10.2727 30.7975C9.96374 32.9757 9.82531 35.1426 9.89662 37.318C10.0602 42.309 11.0348 47.0861 13.7823 51.3441C16.0615 54.8745 19.0705 57.4199 23.3281 58.191C27.1215 58.8791 30.5752 58.0728 33.7548 55.9129C35.1628 54.9561 36.596 54.0373 38.0376 53.1339C41.7639 50.8009 45.5084 50.8825 49.2515 53.1015C51.1559 54.2314 53.0282 55.419 54.9591 56.4983C56.9684 57.6212 59.1035 58.3078 61.4512 57.8604C63.2157 57.5241 64.8027 56.7375 66.3184 55.813C70.7942 53.0846 73.2062 48.9069 74.466 43.9399C75.2574 40.8161 75.5636 37.6276 75.6517 34.4123C75.6657 33.8847 75.7118 33.357 75.7524 32.6914L75.751 32.69Z" fill="white"/>
<path d="M42.1527 0.291504C43.2489 3.30975 45.4959 5.24452 47.6632 7.21447C51.8104 10.9855 56.2721 14.378 60.5633 17.9774C64.6616 21.415 68.6661 24.951 72.3799 28.8136C72.7742 29.2244 72.777 29.4707 72.4456 29.9111C69.9469 33.2319 66.6359 35.403 62.8075 36.8369C59.1553 38.2046 55.3605 38.8307 51.479 39.0179C42.259 39.4625 33.4836 37.6192 25.0998 33.8074C21.9999 32.3975 19.1628 30.5823 16.9047 27.9608C16.3691 27.3389 15.9007 26.6719 15.4743 25.9712C15.2603 25.6194 15.2757 25.4055 15.6057 25.0918C19.8899 21.0154 24.4692 17.2879 29.0358 13.545C32.3566 10.8237 35.7306 8.16145 38.762 5.10381C40.1281 3.72484 41.4312 2.28678 42.1541 0.291504L42.1527 0.291504Z" fill="white"/>
<path d="M34.8608 45.2962C33.8359 46.4093 32.7662 47.2971 31.6155 48.0809C30.2158 49.0335 28.7267 49.7863 27.0153 49.9903C24.6061 50.276 22.6905 49.36 21.179 47.5223C19.4102 45.3736 18.6538 42.8127 18.2804 40.1054C18.1336 39.0388 18.1099 37.9694 18.1672 36.7424C22.7031 41.6786 28.4233 44.0369 34.8608 45.2962Z" fill="white"/>
<path d="M51.4985 45.4962C57.8074 45.0403 63.5402 43.4306 68.462 39.2487C68.4005 40.7191 68.1348 42.0122 67.7531 43.2772C67.0763 45.5215 66.0836 47.5998 64.3456 49.2236C62.258 51.1725 59.874 51.6143 57.2579 50.4549C54.8949 49.408 53.1778 47.5844 51.4985 45.4948V45.4962Z" fill="white"/>
</svg>
