<svg width="117" height="89" viewBox="0 0 117 89" fill="none" xmlns="http://www.w3.org/2000/svg">
<path d="M59.7786 0.226807C80.0135 0.673428 98.4219 7.98118 113.805 22.7261C115.606 24.4479 116.83 26.3768 116.481 28.9659C116.137 31.5226 114.693 33.4451 112.322 34.2865C109.608 35.251 107.082 34.6684 104.925 32.5259C97.7936 25.4577 89.5157 20.0723 79.9229 17.1013C55.1279 9.41166 32.8332 14.0073 13.3172 31.309C11.8792 32.5842 10.655 34.1376 8.6082 34.5389C5.52502 35.1409 2.50661 33.8787 1.23707 31.2055C-0.155542 28.2733 0.323776 25.5677 2.66855 23.2504C11.1408 14.8747 20.9668 8.68671 32.1984 4.73833C40.8002 1.70907 49.6805 0.323898 59.7786 0.226807Z" fill="white"/>
<path d="M58.6321 24.1631C73.2124 24.5191 86.0503 29.4578 96.7831 39.6006C100.087 42.727 100.449 46.7336 97.7806 49.5881C95.0343 52.5203 91.2256 52.3908 87.7927 49.2515C70.4466 33.3997 46.4354 33.4127 29.1281 49.2774C25.7599 52.3649 21.8801 52.4556 19.1272 49.5169C16.5817 46.7984 16.8796 42.7205 19.9952 39.7625C30.7798 29.5161 43.6955 24.4867 58.6321 24.1631Z" fill="white"/>
<path d="M75.7775 68.288C74.5792 68.3915 73.1283 67.6213 71.7421 66.4756C62.6416 58.9931 54.26 58.9672 45.3343 66.3397C42.1216 68.9935 38.4425 68.9288 35.8387 66.1714C33.2348 63.4204 33.4615 59.6921 36.4152 56.7146C48.1973 44.8501 69.0217 44.9148 80.6419 56.8376C82.7082 58.9607 83.5632 61.3362 82.3908 64.1583C81.3026 66.7733 79.3076 68.2038 75.771 68.2944L75.7775 68.288Z" fill="white"/>
<path d="M49.9006 79.5634C49.9006 74.8189 53.7157 70.9158 58.4053 70.864C63.0754 70.8123 66.9941 74.6894 67.0589 79.4146C67.1237 84.3727 63.3086 88.2305 58.3923 88.1916C53.6121 88.1528 49.9136 84.3857 49.9071 79.5634H49.9006Z" fill="white"/>
</svg>
