<svg width="103" height="99" viewBox="0 0 103 99" fill="none" xmlns="http://www.w3.org/2000/svg">
<path d="M102.624 77.5916C101.695 69.7888 100.569 62.0098 99.7491 54.2002C99.0312 47.363 96.0236 41.8551 90.91 37.3877C85.8134 32.9338 79.8016 31.4174 73.1501 31.5704C67.1485 31.7098 61.1401 31.5602 55.1351 31.5296C54.492 31.5296 53.7639 31.754 53.781 30.6082C53.8524 26.0795 53.6993 21.5441 53.9273 17.0256C54.1348 12.8641 59.2484 10.5113 62.7323 12.8029C64.7465 14.1288 65.4984 16.077 65.7025 18.4161C65.9543 21.2993 68.9143 23.8662 71.6497 23.6622C74.8785 23.4208 77.539 20.5241 77.3451 17.981C77.1512 15.448 77.3043 12.8913 77.3043 10.3413H77.4438C77.4438 7.73701 77.4506 5.13268 77.4438 2.52834C77.437 0.971184 76.5762 -0.147388 75.3956 0.0158084C74.0075 0.202804 73.4767 1.06978 73.4937 2.50455C73.5584 7.42762 73.521 12.3541 73.5141 17.2806C73.5141 17.8246 73.6468 18.3923 73.1331 18.8513C72.5139 19.4055 71.8845 19.8679 71.0135 19.6027C69.9145 19.2661 69.6662 18.3141 69.5199 17.3418C68.5332 10.8649 64.6104 7.62822 58.2549 8.0566C54.1926 8.3286 49.9908 12.7009 49.9262 16.7706C49.8547 21.0715 49.7356 25.3758 49.8241 29.6767C49.8581 31.3052 49.3104 31.5806 47.8372 31.5738C40.8693 31.5432 33.9015 31.5942 26.9336 31.6792C16.509 31.805 5.73063 40.9814 4.15197 52.1161C2.93736 60.6805 1.78399 69.2517 0.909602 77.8534C0.372043 83.1403 1.17838 88.264 4.22682 92.7859C7.27186 97.301 11.5349 99.3171 16.9479 98.2563C25.5353 96.5734 31.0333 91.2423 34.041 83.1981C36.562 76.4595 43.9722 71.1318 51.1544 70.9924C59.3573 70.8326 66.9137 76.0413 69.7785 83.7421C72.3404 90.6303 77.1172 95.3494 84.0918 97.6579C91.1685 99.9971 97.0783 97.5695 100.361 91.1131C102.522 86.8632 103.199 82.3073 102.638 77.5984L102.624 77.5916ZM27.9509 66.9125C20.4319 66.8785 14.3384 60.6975 14.3656 53.1259C14.3928 45.6223 20.5952 39.4344 28.0904 39.431C35.606 39.431 41.907 45.7582 41.8832 53.2823C41.8594 60.8811 35.657 66.9465 27.9509 66.9125ZM48.0379 62.9686C46.6362 63.176 45.2208 63.1488 43.8157 62.9924C42.6555 62.8666 41.8968 62.1798 41.9649 60.9865C42.0329 59.8101 42.8494 59.2083 44.0062 59.1301C44.6254 59.0893 45.248 59.1233 45.8707 59.1233V59.1369C46.5477 59.1369 47.235 59.0689 47.9018 59.1539C48.9667 59.2899 49.705 59.8917 49.7425 61.0171C49.7799 62.1322 49.1402 62.8088 48.0379 62.9686ZM59.8846 62.9686C58.4829 63.176 57.0675 63.1488 55.6658 62.9958C54.5022 62.87 53.7605 62.2002 53.8286 60.9899C53.8932 59.7931 54.7098 59.2151 55.8597 59.1335C56.479 59.0893 57.1016 59.1267 57.7242 59.1267V59.1403C58.4012 59.1403 59.0851 59.0757 59.7553 59.1539C60.8305 59.2797 61.562 59.9189 61.6062 61.0137C61.6504 62.1152 60.9904 62.8054 59.8914 62.9686H59.8846ZM67.567 57.0868C65.4814 57.08 63.6884 55.2984 63.6816 53.2211C63.6748 51.1097 65.4269 49.2942 67.4921 49.2704C69.6866 49.2432 71.5136 51.0587 71.4728 53.2245C71.432 55.3256 69.6424 57.0936 67.567 57.0868ZM75.4773 41.4438C77.6581 41.437 79.3354 43.1097 79.3286 45.2857C79.3218 47.4072 77.5833 49.2058 75.5079 49.2364C73.361 49.267 71.5238 47.4208 71.5374 45.2449C71.551 43.1369 73.2964 41.454 75.4773 41.4438ZM75.5725 64.9644C73.4359 65.0188 71.5136 63.1556 71.5374 61.0545C71.5612 59.0043 73.4189 57.1378 75.4364 57.1446C77.5731 57.1514 79.3116 58.8683 79.3286 60.9899C79.3456 63.1318 77.6649 64.9134 75.5725 64.9644ZM83.4896 57.0868C81.3802 57.148 79.4171 55.2678 79.4273 53.1973C79.4375 51.1403 81.2679 49.2806 83.2991 49.2704C85.4493 49.2568 87.1709 50.9397 87.1981 53.0817C87.2253 55.2542 85.5854 57.0256 83.4896 57.0868Z" fill="white"/>
<path d="M27.9373 43.3885C23.6641 43.2049 18.2817 47.7234 18.2681 53.1972C18.2579 58.2019 23.1606 63.465 28.0939 62.904C33.5409 63.431 38.1544 57.6647 37.9196 53.2074C37.6236 47.6044 33.6396 43.6333 27.9373 43.3885ZM31.6152 55.1046C30.3768 55.0468 29.8937 55.3902 30.0059 56.6991C30.108 57.9265 29.6385 59.0043 28.1959 59.0723C26.6173 59.1471 26.1409 58.0115 26.2022 56.7229C26.26 55.448 25.8347 55.0366 24.5725 55.1046C23.3579 55.1692 22.3406 54.7272 22.1943 53.2788C22.2487 51.9358 23.0755 51.2797 24.2731 51.3239C25.6544 51.3749 26.3655 51.1063 26.2192 49.5117C26.1103 48.3251 26.7329 47.3052 28.0394 47.3324C29.4446 47.363 30.1828 48.3183 30.0195 49.7293C29.8698 51.0281 30.3496 51.4055 31.6084 51.3001C32.8638 51.1947 33.9322 51.725 33.9934 53.1122C34.0614 54.6354 32.9285 55.1692 31.6186 55.1046H31.6152Z" fill="white"/>
</svg>
