<svg width="128" height="88" viewBox="0 0 128 88" fill="none" xmlns="http://www.w3.org/2000/svg">
<path d="M127.131 46.9364C126.528 44.4533 124.121 42.504 121.465 42.2853C119.018 42.0831 116.734 42.6615 114.533 43.628C113.383 44.1335 112.27 44.712 111.122 45.2645C111.354 42.0737 109.756 39.9856 106.599 39.6682C102.895 39.2943 99.4924 40.1667 96.6547 42.6756C96.2207 43.0589 96.049 43.0895 95.6483 42.6192C92.956 39.4519 90.2423 38.7652 86.3075 40.1855C84.3617 40.8886 82.5493 41.855 80.7823 42.9084C77.458 44.8907 74.1719 46.934 70.6045 48.8622C71.451 49.0715 72.133 49.1937 72.8413 49.1937C75.5169 49.1937 78.1949 49.1608 80.8681 49.3442C83.0095 49.49 85.1438 49.6852 87.2042 50.3248C89.3933 51.0043 91.3321 52.0836 92.3575 54.2022C94.1913 57.9951 93.9695 63.2081 89.1882 66.0839C86.2813 67.831 83.0835 68.5882 79.7306 68.6187C73.2371 68.6775 66.7389 68.5764 60.2454 68.6611C56.7304 68.7081 53.4896 67.8898 50.4277 66.265C47.2585 64.5861 44.4493 62.4345 41.9406 59.8597C42.9064 60.196 43.8698 60.5369 44.8356 60.8685C50.3967 62.7755 56.0579 63.9818 62.0125 63.8101C67.3637 63.6573 72.7221 63.7772 78.0757 63.7772C79.1607 63.7772 80.2457 63.796 81.326 63.6337C83.1932 63.3516 85.0222 62.9565 86.639 61.9219C88.1128 60.979 88.6302 59.6175 88.3989 57.9386C88.1771 56.3232 87.2137 55.3733 85.6565 54.9524C85.3012 54.8559 84.9483 54.7407 84.5858 54.6749C81.1781 54.0612 77.7299 54.0212 74.2864 54.0682C70.8882 54.1152 67.5807 53.6379 64.3566 52.6315C60.46 51.4158 56.7399 49.8663 53.4205 47.4114C49.1662 44.2628 44.8213 41.2272 40.1831 38.6265C37.0831 36.8888 33.8089 35.826 30.1985 36.0235C27.3417 36.1787 24.6231 36.9335 21.9833 37.9846C14.8221 40.8321 7.82784 44.0583 0.793047 47.1927C0.108644 47.496 0.0108726 47.7335 0.32565 48.4154C4.63476 57.767 8.90572 67.135 13.1934 76.4983C13.4533 77.065 13.6274 77.9327 14.0566 78.0879C14.5169 78.2572 15.1083 77.547 15.6377 77.2155C17.9174 75.7882 20.1709 74.3209 22.4626 72.9171C24.9307 71.4052 27.5253 71.2076 30.1985 72.3716C31.1166 72.7713 32.0347 73.1781 32.9289 73.6272C40.6505 77.5235 48.3602 81.4433 56.0889 85.3302C58.7669 86.6776 61.5713 87.6628 64.5975 87.9403C68.3843 88.2883 71.73 87.082 74.9064 85.1938C81.9818 80.9895 88.8902 76.5242 95.7938 72.0542C104.269 66.5636 112.751 61.0825 121.131 55.4532C123.108 54.127 124.98 52.6644 126.294 50.6399C127.026 49.5112 127.462 48.2979 127.128 46.9317L127.131 46.9364Z" fill="#091F33"/>
<path d="M64.6869 40C76.0083 40.0047 85.1963 31.0686 85.2131 20.0341C85.2324 8.95725 76.0348 -0.0210883 64.6893 3.72039e-05C53.3631 0.0211627 44.1871 8.97133 44.1847 19.9965C44.1847 31.0123 53.3919 39.9953 64.6869 40ZM59.0995 13.9687C59.3858 11.6707 60.8241 10.1731 63.0682 9.55111C63.9389 9.30934 64.2732 8.9995 64.1144 8.16152C64.076 7.95966 64.1337 7.74136 64.1048 7.53715C64.0279 6.98788 64.1818 6.77898 64.8216 6.78132C65.4854 6.78367 65.6706 6.94328 65.6466 7.59818C65.5937 9.14973 65.6321 9.15207 67.2388 9.35863C69.5094 9.6497 69.62 9.79992 69.4757 12.443C68.4872 11.8679 67.4625 11.4994 66.3537 11.3585C65.8077 11.2881 65.6033 11.3937 65.6153 11.9829C65.6514 13.9124 65.649 15.8418 65.6153 17.7713C65.6081 18.2478 65.8029 18.4449 66.2022 18.6421C66.9382 19.0036 67.6646 19.3979 68.3525 19.8416C70.1852 21.027 71.1161 22.6747 70.7168 24.8389C70.3296 26.9421 68.8335 28.0852 66.8444 28.6908C65.6297 29.0617 65.6225 29.0406 65.6225 30.301C65.6225 30.5616 65.584 30.8292 65.6297 31.0827C65.7741 31.8737 65.4109 32.0427 64.6652 32.0028C64.1289 31.9747 64.0615 31.7657 64.0711 31.3362C64.0856 30.6085 64.3165 29.6837 63.9533 29.2119C63.655 28.8246 62.6256 28.9725 61.9185 28.8809C61.8391 28.8716 61.7597 28.8598 61.6803 28.8434C59.2487 28.3505 58.9408 27.9326 59.2246 25.3882C60.5306 26.36 61.9425 26.7707 63.4386 26.975C63.9028 27.0383 64.1 26.9703 64.0904 26.4374C64.0567 24.508 64.0687 22.5785 64.0856 20.6467C64.088 20.2805 63.9557 20.0974 63.6214 19.9355C62.9527 19.6139 62.3057 19.2477 61.6635 18.8792C59.7441 17.7736 58.8326 16.1071 59.0995 13.9687Z" fill="#091F33"/>
<path d="M68.1791 24.6673C68.3744 23.088 67.2835 21.7218 65.1993 21V27C66.9849 26.7529 68.0228 25.9318 68.1791 24.6673Z" fill="#091F33"/>
<path d="M63.1921 17C63.1921 15.3982 63.1844 13.8608 63.1979 12.3254C63.2017 11.9216 62.9964 11.9801 62.7509 12.0503C61.8857 12.302 61.2775 13.0668 61.2085 13.9916C61.1049 15.3904 61.6689 16.2762 63.1921 17Z" fill="#091F33"/>
</svg>
