<svg width="91" height="87" viewBox="0 0 91 87" fill="none" xmlns="http://www.w3.org/2000/svg">
<path d="M64.2113 0.831478C78.7614 6.55495 93.9696 25.3145 89.8446 49.5419C86.4386 69.568 67.995 85.7946 47.6748 86.4218C25.5327 87.1037 6.23609 72.5941 1.58102 51.7704C-3.11671 30.7397 7.40595 9.08789 26.733 0.703613C26.733 2.51808 26.733 4.16814 26.733 5.8243C26.733 14.647 26.6843 23.4696 26.7757 32.2862C26.794 34.1677 26.27 34.7887 24.3872 34.6548C22.1694 34.4965 19.921 34.6791 17.691 34.6C15.8326 34.5391 14.2241 34.8313 13.432 36.7493C12.6216 38.7221 13.8097 39.9764 15.0771 41.2368C22.9797 49.1157 30.8641 57.0128 38.7485 64.8978C39.9671 66.1156 41.1674 67.3577 42.4043 68.5572C44.6222 70.6944 46.2795 70.7796 48.4059 68.6668C57.7587 59.3692 67.0628 50.029 76.4034 40.7192C77.6037 39.5258 78.1399 38.1863 77.4514 36.6154C76.7568 35.0323 75.3859 34.5513 73.7103 34.5939C71.1756 34.6548 68.6348 34.5817 66.1001 34.6304C64.9485 34.6548 64.1869 34.5452 64.193 33.0534C64.2356 22.3432 64.2174 11.633 64.2174 0.831478H64.2113Z" fill="#091F33"/>
<path d="M57.3626 29.0837C57.0153 28.5662 56.9726 28.2922 57.3443 27.7685C59.355 24.9616 59.2575 21.7893 58.6543 18.6232C58.0328 15.3656 55.882 13.3381 52.7319 12.5344C51.4158 12.1995 49.9717 12.3456 48.5886 12.3273C46.1331 12.303 46.1027 12.3273 46.1392 9.86137C46.1575 8.50966 46.4378 7.34061 44.226 7.48065C42.4408 7.59634 41.7157 7.97385 42.0203 9.77613C42.0996 10.2267 41.9899 10.7016 42.0386 11.1583C42.1422 12.0716 41.7705 12.3578 40.8627 12.3334C38.4315 12.2786 36.0004 12.3821 33.5754 12.2847C32.302 12.2299 31.8937 12.5526 31.9181 13.8982C32.0095 18.6962 31.9547 23.4942 31.9547 28.2983C31.9547 33.1023 32.0156 38.016 31.9181 42.8688C31.8876 44.3057 32.369 44.6223 33.6851 44.5675C35.9943 44.4701 38.3158 44.6041 40.625 44.5006C41.8071 44.4519 42.197 44.8476 42.0447 45.9619C41.9899 46.3576 42.0935 46.7778 42.0264 47.1735C41.7583 48.7871 42.2823 49.329 44.0249 49.3107C45.7127 49.2924 46.4804 48.9515 46.1453 47.1675C46.0539 46.6621 46.1758 46.1263 46.1209 45.6087C46.0356 44.7806 46.3403 44.4823 47.1872 44.5127C48.6313 44.5554 50.0875 44.5919 51.5255 44.464C54.9741 44.1596 57.4418 42.3147 58.4167 39.0511C59.4281 35.6657 59.4647 32.2012 57.3626 29.0776V29.0837ZM42.0325 35.2578V35.7753C42.0325 39.459 42.0325 39.4286 38.3341 39.1911C37.5359 39.1424 37.3957 38.8623 37.4079 38.1682C37.4445 36.1528 37.4445 34.1435 37.4079 32.1281C37.3896 31.3975 37.5846 31.1722 38.3584 31.1235C42.0447 30.9043 42.0386 30.8799 42.0386 34.5636V35.2517L42.0325 35.2578ZM42.0569 19.0555C41.9594 20.9004 41.996 22.7575 42.0508 24.6084C42.0752 25.4183 41.8497 25.6679 41.0028 25.7044C37.4201 25.8506 37.4201 25.881 37.4201 21.6006V20.7299C37.4201 17.6124 37.4201 17.6672 40.6189 17.6185C41.7522 17.6002 42.1239 17.8986 42.063 19.0494L42.0569 19.0555ZM46.1331 21.5762C46.1331 18.9459 47.4391 17.6388 50.051 17.655C52.5735 17.6733 53.457 18.5562 53.4691 21.0952C53.4691 21.8441 53.4813 22.5991 53.4448 23.3481C53.396 24.3832 52.7867 25.1991 51.8971 25.4548C50.1606 25.9541 48.3388 25.6375 46.5536 25.6375C45.926 25.6375 46.1514 25.0408 46.1392 24.6876C46.1088 23.6464 46.127 22.6052 46.127 21.564L46.1331 21.5762ZM53.4204 37.0235C53.0914 38.5274 52.019 39.1424 50.5018 39.1789C46.1392 39.2825 46.1392 39.3068 46.1392 35.0081C46.1392 34.7219 46.1392 34.4297 46.1392 34.1435C46.1392 32.1504 47.1161 31.1336 49.07 31.093C49.99 31.16 50.9588 31.0687 51.8179 31.3305C53.3717 31.8054 54.0358 34.2227 53.4265 37.0235H53.4204Z" fill="#091F33"/>
</svg>
