<svg width="152" height="72" viewBox="0 0 152 72" fill="none" xmlns="http://www.w3.org/2000/svg">
<path d="M151.496 31.0952C149.602 17.3316 141.847 7.70904 129.057 2.71423C116.297 -2.26821 104.132 -0.358553 93.2992 8.17511C87.6401 12.6337 82.9716 18.1895 77.8673 23.2627C76.6139 24.5083 75.8742 24.6114 74.5591 23.3287C69.7549 18.6349 65.2589 13.6071 60.1053 9.28461C51.4052 1.98006 41.3858 -0.69264 30.2157 1.25827C11.8372 4.47128 -1.72879 22.0212 1.11511 41.4766C3.79872 59.8432 20.8785 74.0398 40.8803 71.759C49.8024 70.7402 57.2039 66.6693 63.4999 60.301C76.0837 47.5768 88.7539 34.9351 101.383 22.2522C105.406 18.2101 110.231 16.1561 116.363 16.1973C117.098 16.2427 118.278 16.2056 119.42 16.3953C130.179 18.1565 137.659 28.5874 135.748 39.1091C133.763 50.0433 123.07 57.3355 112.257 55.2031C107.58 54.2792 103.672 52.0643 100.499 48.5502C99.3568 47.284 98.5226 47.3005 97.3472 48.5419C94.6143 51.4291 91.7786 54.2214 88.9388 57.0055C88.0265 57.9005 87.9032 58.5687 88.8772 59.5545C97.5897 68.3645 107.93 72.7117 120.398 71.165C140.334 68.6944 154.229 50.9507 151.5 31.091L151.496 31.0952ZM63.3931 37.7769C59.267 41.7901 55.2436 45.9064 51.1832 49.9814C47.1599 54.0193 42.3022 56.0115 34.0706 55.9331C26.3115 55.9042 17.4552 48.1171 16.7771 38.5111C15.9962 27.3955 23.1142 18.2555 33.9144 16.8201C40.2721 15.9746 46.0051 17.6945 50.7312 22.1779C55.0052 26.2323 59.1355 30.4394 63.426 34.4773C64.7863 35.7559 64.6589 36.556 63.3972 37.781L63.3931 37.7769Z" fill="#091F33"/>
</svg>
