<svg width="109" height="73" viewBox="0 0 109 73" fill="none" xmlns="http://www.w3.org/2000/svg">
<path d="M106.805 6.491C104.12 2.06104 100.133 -0.00313824 94.9616 3.58097e-06C67.9861 0.0219963 41.0137 0.00942904 14.0382 0.0125709C13.5823 0.0125709 13.1233 0.0188545 12.6674 0.0471309C8.14005 0.358171 4.71938 2.49147 2.29221 6.29935C1.3553 7.76658 0.965442 9.42546 0.462402 11.0466V61.2498C0.880554 62.3871 1.04404 63.6093 1.59739 64.7026C4.20376 69.8363 8.38843 72.3027 14.1451 72.2964C41.0483 72.2744 67.9546 72.287 94.8578 72.2838C95.386 72.2838 95.9111 72.2681 96.4393 72.2367C103.149 71.866 108.528 66.2075 108.531 59.4966C108.537 43.9289 108.531 28.3581 108.537 12.7903C108.537 10.5251 107.968 8.40751 106.805 6.48786V6.491ZM7.615 16.7836C7.76277 15.0744 7.42322 13.3402 7.81307 11.6404C8.41672 9.02645 10.5767 7.27331 13.2428 7.22619C14.9311 7.19791 16.6194 7.21362 18.3046 7.21362C43.903 7.21362 69.5046 7.22304 95.1031 7.20105C97.7095 7.20105 99.6462 8.1813 100.819 10.5377C101.165 11.232 101.353 11.9798 101.357 12.7621C101.363 14.2733 101.331 15.7845 101.375 17.2957C101.394 17.9178 101.177 18.0403 100.602 18.034C97.6843 18.0058 94.7635 18.0215 91.8459 18.0215H54.5015C39.2751 18.0215 24.0487 18.0089 8.8223 18.0497C7.76591 18.0497 7.52383 17.7607 7.60871 16.7805L7.615 16.7836ZM101.363 59.0002C101.363 62.6636 98.9828 65.0702 95.3137 65.0733C81.7002 65.0859 68.0898 65.0765 54.4763 65.0765C40.9005 65.0765 27.3216 65.0796 13.7458 65.0733C10.5484 65.0733 8.3224 63.3014 7.7219 60.3166C7.64644 59.9428 7.64015 59.55 7.64015 59.1636C7.63701 49.182 7.64959 39.1973 7.61186 29.2158C7.60871 28.3612 7.89482 28.2764 8.62108 28.2764C39.187 28.2921 69.753 28.2952 100.319 28.2669C101.221 28.2669 101.388 28.512 101.388 29.3634C101.357 39.2413 101.372 49.1161 101.366 58.9939L101.363 59.0002Z" fill="white"/>
<path d="M85.734 40.5356C84.7845 40.5136 83.835 40.5324 82.8855 40.5324V40.5418C81.7946 40.5418 80.7036 40.5073 79.6158 40.5481C76.629 40.6644 74.1861 42.8951 73.9063 45.8578C73.6799 48.2707 73.6799 50.7088 73.9031 53.1217C74.1892 56.2258 76.7642 58.4848 79.883 58.5036C81.8166 58.5162 83.7533 58.5099 85.6868 58.5036C88.6893 58.4942 91.1794 56.6122 91.6667 53.6307C92.11 50.9318 92.0974 48.1482 91.6793 45.4494C91.214 42.4332 88.8088 40.6015 85.7371 40.5356H85.734Z" fill="white"/>
<path d="M35.7066 52.0884C34.5118 52.0664 33.3171 52.0821 32.1224 52.0821C27.202 52.0821 22.2817 52.0821 17.3613 52.0821C15.4403 52.0821 15.214 52.302 15.214 54.1745C15.214 55.0511 15.2077 55.9308 15.214 56.8074C15.2266 58.127 15.5913 58.5008 16.8866 58.504C20.0149 58.5071 23.1431 58.504 26.2683 58.504C29.4311 58.504 32.594 58.5103 35.7569 58.504C36.8856 58.504 37.3415 58.0515 37.3635 56.9142C37.3823 55.8617 37.3792 54.8061 37.3635 53.7535C37.3446 52.5597 36.9076 52.1104 35.7066 52.0884Z" fill="white"/>
</svg>
