<svg width="150" height="59" viewBox="0 0 150 59" fill="none" xmlns="http://www.w3.org/2000/svg">
<path d="M0.903454 57V49.8622L19.8399 31.2987C21.651 29.4698 23.1602 27.8452 24.3676 26.4247C25.575 25.0043 26.4805 23.6282 27.0842 22.2965C27.6879 20.9648 27.9897 19.5444 27.9897 18.0352C27.9897 16.3129 27.5991 14.8391 26.8179 13.614C26.0366 12.3711 24.9624 11.4123 23.5952 10.7376C22.228 10.0629 20.6744 9.72549 18.9343 9.72549C17.141 9.72549 15.5696 10.0984 14.2202 10.8441C12.8708 11.5721 11.8232 12.6108 11.0775 13.9602C10.3495 15.3097 9.98549 16.9165 9.98549 18.7809H0.583851C0.583851 15.3185 1.37398 12.3089 2.95424 9.75213C4.53449 7.19531 6.70956 5.21555 9.47945 3.81285C12.2671 2.41015 15.4631 1.7088 19.0675 1.7088C22.7252 1.7088 25.939 2.3924 28.7089 3.75959C31.4787 5.12677 33.6272 7 35.1542 9.37926C36.6989 11.7585 37.4713 14.4751 37.4713 17.5291C37.4713 19.571 37.0807 21.5774 36.2994 23.5483C35.5182 25.5192 34.1421 27.7031 32.1712 30.1001C30.2181 32.4972 27.4748 35.4002 23.9415 38.8093L14.5398 48.3707V48.7436H38.2969V57H0.903454ZM67.6471 58.0387C63.2614 58.0387 59.4972 56.929 56.3544 54.7095C53.2294 52.4723 50.8236 49.2496 49.1368 45.0415C47.4677 40.8157 46.6332 35.7287 46.6332 29.7805C46.651 23.8324 47.4944 18.772 49.1634 14.5994C50.8502 10.4091 53.2561 7.21307 56.3811 5.01136C59.5238 2.80966 63.2792 1.7088 67.6471 1.7088C72.015 1.7088 75.7703 2.80966 78.913 5.01136C82.0558 7.21307 84.4617 10.4091 86.1307 14.5994C87.8175 18.7898 88.6609 23.8501 88.6609 29.7805C88.6609 35.7464 87.8175 40.8423 86.1307 45.0682C84.4617 49.2763 82.0558 52.4901 78.913 54.7095C75.788 56.929 72.0327 58.0387 67.6471 58.0387ZM67.6471 49.7024C71.0562 49.7024 73.7461 48.0245 75.717 44.6687C77.7057 41.2951 78.7 36.3324 78.7 29.7805C78.7 25.4482 78.2472 21.8082 77.3417 18.8608C76.4361 15.9134 75.1577 13.6939 73.5064 12.2024C71.8552 10.6932 69.902 9.93856 67.6471 9.93856C64.2557 9.93856 61.5746 11.6254 59.6037 14.9989C57.6329 18.3548 56.6385 23.282 56.6208 29.7805C56.603 34.1307 57.038 37.7884 57.9258 40.7536C58.8314 43.7187 60.1098 45.956 61.7611 47.4652C63.4123 48.9567 65.3743 49.7024 67.6471 49.7024ZM126.674 46.7727V43.8963C126.674 41.7834 127.117 39.8391 128.005 38.0636C128.911 36.288 130.225 34.8587 131.947 33.7756C133.669 32.6925 135.756 32.1509 138.206 32.1509C140.727 32.1509 142.84 32.6925 144.545 33.7756C146.249 34.8409 147.537 36.2614 148.407 38.0369C149.294 39.8125 149.738 41.7656 149.738 43.8963V46.7727C149.738 48.8857 149.294 50.8299 148.407 52.6055C147.519 54.381 146.214 55.8104 144.491 56.8935C142.787 57.9766 140.692 58.5181 138.206 58.5181C135.72 58.5181 133.616 57.9766 131.894 56.8935C130.171 55.8104 128.866 54.381 127.979 52.6055C127.109 50.8299 126.674 48.8857 126.674 46.7727ZM133.625 43.8963V46.7727C133.625 48.1754 133.962 49.4627 134.637 50.6346C135.312 51.8065 136.501 52.3924 138.206 52.3924C139.928 52.3924 141.109 51.8153 141.748 50.6612C142.405 49.4893 142.734 48.1932 142.734 46.7727V43.8963C142.734 42.4759 142.423 41.1797 141.801 40.0078C141.18 38.8182 139.981 38.2234 138.206 38.2234C136.537 38.2234 135.356 38.8182 134.664 40.0078C133.971 41.1797 133.625 42.4759 133.625 43.8963ZM98.9481 15.5582V12.6818C98.9481 10.5511 99.4009 8.59801 100.306 6.82244C101.212 5.04687 102.526 3.62642 104.248 2.56108C105.97 1.47798 108.057 0.936431 110.507 0.936431C113.011 0.936431 115.115 1.47798 116.819 2.56108C118.542 3.62642 119.838 5.04687 120.708 6.82244C121.578 8.59801 122.013 10.5511 122.013 12.6818V15.5582C122.013 17.6889 121.569 19.642 120.681 21.4176C119.811 23.1754 118.515 24.587 116.793 25.6523C115.07 26.7177 112.975 27.2504 110.507 27.2504C108.004 27.2504 105.891 26.7177 104.168 25.6523C102.464 24.587 101.168 23.1665 100.28 21.391C99.392 19.6154 98.9481 17.6712 98.9481 15.5582ZM105.953 12.6818V15.5582C105.953 16.9787 106.281 18.2749 106.938 19.4467C107.613 20.6009 108.803 21.1779 110.507 21.1779C112.212 21.1779 113.383 20.6009 114.023 19.4467C114.68 18.2749 115.008 16.9787 115.008 15.5582V12.6818C115.008 11.2614 114.697 9.9652 114.076 8.79332C113.455 7.60369 112.265 7.00888 110.507 7.00888C108.82 7.00888 107.64 7.60369 106.965 8.79332C106.29 9.98295 105.953 11.2791 105.953 12.6818ZM101.984 57L139.484 2.45454H146.143L108.643 57H101.984Z" fill="white"/>
</svg>
