<svg width="74" height="91" viewBox="0 0 74 91" fill="none" xmlns="http://www.w3.org/2000/svg">
<path d="M41.8213 89.3688C37.0027 84.2495 32.1694 79.1391 27.3508 74.0198C26.8604 73.5002 26.3198 73.1843 25.6019 73.0485C19.3888 71.8794 13.1788 70.6719 6.96577 69.491C6.12969 69.3315 5.76335 69.1426 5.97606 68.0798C7.55369 60.3034 9.03973 52.5093 10.5405 44.7182C12.452 34.8102 14.3635 24.8993 16.2336 14.9855C16.4463 13.8577 16.8215 13.5979 17.9855 13.8607C21.2855 14.6017 24.624 15.1715 27.9476 15.8062C36.7545 17.495 45.5615 19.1896 54.3743 20.8665C55.4143 21.0643 55.9342 21.4835 55.6979 22.6497C54.6432 27.831 53.6298 33.0241 52.6135 38.2142C52.0611 41.0307 51.5382 43.8561 50.9739 46.8173C52.2147 46.5368 53.2103 46.0585 54.3064 46.1796C55.0716 46.2622 55.3699 46.0172 55.5295 45.1787C57.3494 35.5513 59.1043 25.9061 61.1457 16.3229C62.1532 11.5992 59.5385 7.05855 53.9016 6.01638C43.8716 4.16233 33.8711 2.16067 23.8588 0.226911C18.5262 -0.803444 14.5851 1.71487 13.486 6.97293C12.2659 12.8244 11.1403 18.6965 10.0028 24.5628C6.77373 41.2522 3.5594 57.9474 0.333238 74.6368C-0.54716 79.1922 2.26243 83.3875 6.82396 84.2791C15.7698 86.0268 24.7126 87.8041 33.6702 89.4928C36.2139 89.9711 38.731 90.783 41.3811 90.4819C41.7208 90.4435 42.1581 90.4937 42.3146 90.1601C42.5008 89.7645 42.034 89.5962 41.8213 89.3688ZM33.0143 10.0374C33.1118 9.57982 33.6082 9.42925 34.394 9.44991C36.4 9.85733 38.7015 10.3208 41 10.7962C41.4874 10.8965 41.8479 11.2656 41.7947 11.7173C41.7326 12.2605 41.1536 12.3077 40.74 12.2369C38.4297 11.8265 36.1253 11.3807 33.8268 10.9113C33.3984 10.8227 32.905 10.5452 33.0143 10.0374ZM30.7897 8.95983C31.2979 8.90079 31.6671 9.28754 31.7203 9.70677C31.7617 10.0581 31.2299 10.0669 31.0467 10.2323C30.4765 10.2795 30.1959 9.97838 30.1309 9.58867C30.0659 9.18126 30.4706 8.99526 30.7897 8.95688V8.95983ZM23.389 84.0901C21.1467 84.096 19.3977 82.3483 19.4036 80.1104C19.4095 77.8844 21.1969 76.0628 23.3713 76.0687C25.5428 76.0746 27.3686 77.908 27.3804 80.0956C27.3922 82.3305 25.6403 84.0842 23.392 84.0901H23.389Z" fill="#091F33"/>
<path d="M73.2851 74.4862C71.2082 67.6044 68.8152 60.817 66.5078 54.0031C65.9879 52.4679 64.5639 51.6088 62.9537 51.6974C61.9463 51.7505 61.0334 52.0517 60.3125 52.8163C59.6271 53.5455 59.4144 54.4814 59.116 55.6623C58.2504 53.1174 57.6773 50.4574 54.5013 50.4545C52.2353 50.4545 51.1186 52.0251 50.5779 54.3545C49.7153 51.783 49.1244 49.2794 46.0016 49.2204C44.1877 49.185 42.9882 50.3334 42.0753 53.0613C40.5449 48.4971 39.1239 44.2398 37.694 39.9885C36.9318 37.7212 34.8489 36.6524 32.707 37.3846C30.5888 38.1079 29.8354 40.641 30.447 42.4301C33.1472 50.295 35.6791 58.219 38.2671 66.1253C38.4474 66.6774 38.6542 67.2413 38.0042 67.7018C37.3956 68.1329 36.9229 67.9262 36.4029 67.5542C35.2389 66.7217 34.2197 65.7267 33.1945 64.7377C32.4205 63.9908 31.6464 63.2291 30.5769 62.8866C29.1707 62.4379 27.4306 62.9191 26.7156 63.9672C25.8854 65.1835 26.0125 66.2286 27.3124 67.6192C32.8223 73.509 38.338 79.393 43.8893 85.2444C45.1685 86.5907 46.3 88.0993 47.9633 89.0588C55.1838 93.2304 66.7087 90.3933 71.3382 83.2723C73.0842 80.5857 74.2305 77.6009 73.291 74.4892L73.2851 74.4862Z" fill="#091F33"/>
<path d="M36.2848 31.3855C40.6454 32.4365 43.777 36.0826 44.0134 40.6203C44.0754 41.816 44.4122 42.6987 45.3222 43.3778C45.9603 43.8531 46.371 45.1255 47.1361 44.7683C47.8363 44.4435 47.6886 43.1829 47.7477 42.3267C48.2263 35.5837 43.9573 29.6112 37.4606 27.8516C31.0792 26.1245 24.4408 29.1713 21.4362 35.2087C18.0978 41.9134 21.0049 50.5961 27.7319 53.5662C27.5931 51.5114 28.1071 49.6662 26.3463 47.9155C23.197 44.7801 22.8956 39.7199 25.1469 36.0767C27.5694 32.156 31.9064 30.3286 36.2877 31.3855H36.2848Z" fill="#091F33"/>
</svg>
