<svg width="189" height="88" viewBox="0 0 189 88" fill="none" xmlns="http://www.w3.org/2000/svg">
<path d="M43.8862 0.00208034C20.0389 -0.000983532 0.582045 19.2922 0.263181 42.6757C-0.0710134 67.2326 19.8365 86.9333 43.5827 87.0773C67.5282 87.2244 87.2119 67.7903 87.4848 44.0483C87.7668 19.6262 67.7489 -0.233838 43.8862 0.00208034ZM26.3364 51.5916C26.315 54.012 24.8372 55.6604 22.7155 55.6757C20.6398 55.691 19.0976 53.9967 19.0884 51.6008C19.067 46.8609 19.0639 42.1211 19.0884 37.3813C19.1038 34.9486 20.5938 33.3952 22.7891 33.4259C24.8954 33.4565 26.315 35.016 26.3364 37.3721C26.3579 39.7681 26.3395 42.164 26.3426 44.5569C26.3426 46.9008 26.3579 49.2446 26.3395 51.5885L26.3364 51.5916ZM60.1544 46.5515C60.1544 50.0719 60.1636 53.5923 60.1544 57.1157C60.1452 59.9222 58.6184 61.4511 55.8038 61.494C53.4767 61.5308 53.6913 61.2305 53.6729 63.6418C53.6606 65.3759 53.7097 67.1131 53.6545 68.8473C53.5779 71.2861 52.0479 72.8579 49.9079 72.7905C47.8506 72.7262 46.4126 71.1176 46.3728 68.7707C46.339 66.7302 46.3298 64.6866 46.3728 62.6491C46.3912 61.7881 46.0784 61.5216 45.2261 61.4817C41.4672 61.304 41.4733 61.2795 41.4641 64.9439C41.461 66.3227 41.4396 67.6983 41.4058 69.0771C41.3507 71.28 39.8882 72.7691 37.7788 72.7905C35.8349 72.8089 34.2161 71.2831 34.1333 69.1996C34.0505 67.1622 34.0505 65.1155 34.1241 63.078C34.1639 61.9352 33.9033 61.4634 32.6248 61.4726C29.0345 61.494 27.6732 60.057 27.6702 56.4509C27.661 49.5112 27.6886 42.5715 27.6456 35.6319C27.6395 34.5932 27.894 34.2255 28.9947 34.2286C38.9561 34.2684 48.9145 34.2654 58.8759 34.2317C59.8785 34.2286 60.1912 34.535 60.1759 35.5338C60.1238 39.2074 60.1544 42.881 60.1544 46.5546V46.5515ZM58.787 32.7334C48.893 32.6936 38.999 32.6813 29.1081 32.7396C27.71 32.7487 27.5996 32.1237 27.7499 31.0667C28.3937 26.5567 30.6748 23.0761 34.4981 20.6495C35.4425 20.049 35.8073 19.5006 35.2585 18.4987C34.6514 17.4447 34.0352 16.3999 33.4434 15.3368C33.2748 15.0365 33.0694 14.6596 33.5477 14.4299C33.9677 14.2246 34.2375 14.4881 34.4031 14.8312C34.8845 15.83 35.6571 16.6849 35.884 17.8093C36.1691 18.995 36.8252 19.3075 37.9995 18.8847C41.9577 17.4662 45.9497 17.4539 49.9109 18.8541C50.797 19.1666 51.1864 18.9276 51.5482 18.1617C51.867 17.4876 52.3147 16.8748 52.7041 16.2375C52.9831 15.7044 53.2375 15.156 53.5533 14.6474C53.7189 14.3808 54.0378 14.246 54.3444 14.439C54.6694 14.6413 54.6234 14.9844 54.4425 15.2326C54.0715 15.7534 54.004 16.4765 53.3755 16.8197C52.8849 17.6898 51.9897 18.5722 52.0234 19.4209C52.0571 20.2696 53.4491 20.4841 54.1911 21.057C57.5667 23.6613 59.808 26.8998 60.2158 31.2597C60.3231 32.4179 59.9398 32.7396 58.7901 32.7334H58.787ZM68.5123 52.0695C68.4817 54.1744 66.918 55.7002 64.9558 55.6788C63.0763 55.6573 61.4728 54.153 61.4115 52.1645C61.3348 49.6215 61.3931 47.0724 61.3931 44.5263H61.3808C61.3808 42.1855 61.3655 39.8416 61.3839 37.5008C61.4054 34.9976 62.7789 33.4442 64.9466 33.432C67.151 33.4197 68.6258 34.9486 68.6258 37.4089C68.6258 42.2958 68.5829 47.1827 68.5093 52.0665L68.5123 52.0695Z" fill="#091F33"/>
<path d="M146.229 0.0264417C121.202 -0.574077 102.012 19.3105 101.5 42.4059C100.945 67.3826 120.92 86.6023 144.154 87.0251C168.915 87.4724 188.69 67.4561 188.565 43.561C188.663 19.5801 169.344 0.581003 146.229 0.0264417ZM144.46 22.6593C144.862 15.8667 148.425 10.3364 156.163 8.83507C157.454 8.58384 157.074 9.53057 157.147 9.78181C157.003 14.874 155.427 18.8968 151.221 21.5256C149.418 22.6531 147.407 23.1648 145.319 23.4773C144.558 23.5907 144.421 23.272 144.457 22.6562L144.46 22.6593ZM170.794 53.9414C168.804 58.5862 166.171 62.7899 162.547 66.344C159.616 69.2179 156.225 70.0941 152.484 68.2282C148.327 66.1571 144.301 66.3531 140.116 68.121C135.419 70.1064 132.702 69.5212 129.262 65.7925C122.768 58.7517 119.062 50.5221 118.954 40.8342C118.89 36.5907 119.785 32.6169 122.259 29.1118C126.717 22.7971 134.484 21.1059 141.22 23.8205C144.509 25.1471 147.391 25.1655 150.605 23.8052C157.083 21.063 163.807 22.552 168.443 27.4328C169.102 28.1252 169.224 28.5113 168.412 29.2098C166.704 30.6744 165.211 32.335 164.104 34.3357C161.474 39.0969 162.025 44.3117 165.656 48.3652C167.023 49.894 168.547 51.2544 170.285 52.3421C170.975 52.7741 171.119 53.1662 170.788 53.9383L170.794 53.9414Z" fill="#091F33"/>
<path d="M36.5645 24.1882C35.6906 24.2158 35.1725 24.6723 35.1357 25.4751C35.0989 26.2778 35.5956 26.8507 36.4081 26.8814C37.2022 26.912 37.7633 26.4432 37.8031 25.6037C37.843 24.7612 37.3156 24.3414 36.5645 24.1882Z" fill="#091F33"/>
<path d="M51.2262 24.176C50.5455 24.3353 49.9906 24.7551 50.0581 25.5946C50.1224 26.3881 50.659 26.9458 51.4653 26.8845C52.2288 26.8232 52.7837 26.3024 52.7408 25.4598C52.6948 24.6203 52.146 24.2312 51.2262 24.176Z" fill="#091F33"/>
</svg>
