<svg width="101" height="97" viewBox="0 0 101 97" fill="none" xmlns="http://www.w3.org/2000/svg">
<path d="M97.5953 54.847C97.4253 54.2693 97.4721 53.8859 97.8469 53.3827C100.696 49.5571 101.61 45.3203 100.113 40.747C98.5565 35.9914 93.8495 32.6742 88.8511 32.6568C83.1015 32.636 77.3519 32.6516 71.5259 32.6516C72.095 30.5194 73.2522 28.7844 74.163 26.9384C75.8321 23.5552 76.7689 20.0142 76.7672 16.2215C76.7672 14.3686 76.6909 12.5226 76.3474 10.7095C75.6794 7.19624 74.1041 4.21904 70.8354 2.465C68.1913 1.04406 65.3131 0.53745 62.3185 0.710946C61.3105 0.769935 60.5229 1.2696 59.8584 1.99655C58.2067 3.80439 57.2143 5.96962 56.6175 8.30141C56.0692 10.4424 55.6997 12.6284 55.2035 14.7832C54.6587 17.1497 53.9613 19.5162 52.3148 21.3397C49.1763 24.8148 46.3379 28.5276 43.3954 32.1589C41.343 34.692 39.2836 37.2285 36.7853 39.3555C36.1017 39.9368 35.3852 40.4677 34.457 40.6064C32.12 40.9534 30.7702 42.4941 30.7702 44.8346C30.7667 58.0133 30.7667 71.1904 30.7702 84.3692C30.7702 86.5153 32.2466 88.2312 34.4032 88.5036C36.3238 88.7465 38.1836 89.2254 40.0227 89.7944C44.8962 91.3038 49.6412 93.2175 54.5841 94.5083C58.0905 95.4244 61.6315 96.1721 65.2523 96.4983C69.0033 96.8349 72.7612 96.5851 76.5156 96.6666C77.9921 96.6978 79.4564 96.5816 80.9068 96.3023C85.1366 95.4903 88.5406 93.4673 90.6433 89.5827C92.0712 86.9421 92.4408 84.0812 92.2915 81.13C92.2707 80.6997 92.3453 80.3857 92.6438 80.0422C95.7268 76.4942 96.7452 72.4049 95.7233 67.8228C95.6365 67.4359 95.6764 67.1826 95.8881 66.8773C98.4715 63.1558 98.8583 59.1116 97.5988 54.8488L97.5953 54.847Z" fill="#091F33"/>
<path d="M26.8319 64.7487H26.8354C26.8354 58.1333 26.8371 51.5162 26.8354 44.9007C26.8354 42.2237 25.2202 40.5946 22.5379 40.5911C16.7016 40.5824 10.8652 40.6397 5.03054 40.5651C2.56864 40.5338 0.75215 42.4909 0.75562 44.8799C0.778175 57.9963 0.764295 71.1126 0.7695 84.2289C0.7695 86.9702 2.46108 88.6617 5.17975 88.6617C10.8721 88.6617 16.5645 88.5941 22.2534 88.693C24.7726 88.7364 26.9048 87.0291 26.8614 84.0762C26.766 77.6343 26.8319 71.1907 26.8319 64.7487ZM12.8222 80.6879C10.6206 80.6809 8.83702 78.8731 8.83876 76.6523C8.84049 74.3899 10.5685 72.674 12.8361 72.6793C15.0586 72.6845 16.8421 74.4559 16.8525 76.6662C16.8612 78.821 14.984 80.6948 12.8205 80.6879H12.8222Z" fill="#091F33"/>
</svg>
