<svg width="27" height="22" viewBox="0 0 27 22" fill="none" xmlns="http://www.w3.org/2000/svg">
<path d="M26.7837 10.9785C26.7837 11.752 26.1055 12.3578 25.3369 12.3578H23.8901L23.9217 19.2371C23.9217 19.3574 23.9127 19.4691 23.8991 19.5852V20.2812C23.8991 21.2309 23.0898 22 22.0906 22H21.3672C21.3174 22 21.2677 21.9613 21.218 21.9957C21.1547 21.9613 21.0914 22 21.0281 22H18.4735C17.4743 22 16.665 21.2309 16.665 20.2812V16.5C16.665 15.7395 16.0185 15.125 15.2182 15.125H12.3246C11.5243 15.125 10.8777 15.7395 10.8777 16.5V20.2812C10.8777 21.2309 10.0684 22 9.06921 22H6.5418C6.47398 22 6.40616 21.9957 6.33834 21.9914C6.28408 21.9957 6.22983 22 6.17557 22H5.45216C4.45341 22 3.64364 21.2309 3.64364 20.2812V15.4688C3.64364 15.4301 3.64499 15.3871 3.64771 15.3484V12.3578H2.19908C1.38389 12.3578 0.75 11.752 0.75 10.9785C0.75 10.5918 0.88582 10.248 1.20258 9.94727L12.7948 0.344437C13.1113 0.0430547 13.473 0 13.7895 0C14.106 0 14.4677 0.0861094 14.7435 0.301383L26.2864 9.94727C26.6481 10.248 26.8334 10.5918 26.7837 10.9785Z" fill="#FFCB11"/>
</svg>
