<svg width="29" height="17" viewBox="0 0 29 17" fill="none" xmlns="http://www.w3.org/2000/svg">
<path d="M28.096 7.62003C27.3072 5.06906 26.0743 2.77889 23.9126 1.06251C22.0944 -0.380638 20.3233 -0.350831 18.5382 1.13455C18.1361 1.46987 17.7468 1.82011 17.3447 2.15543C15.6678 3.54891 13.7262 3.55387 12.0531 2.17282C11.5034 1.71951 10.9818 1.23142 10.4118 0.806671C9.04908 -0.206764 7.57317 -0.256442 6.10998 0.624104C5.14172 1.20658 4.35415 1.98032 3.67981 2.86335C1.85018 5.25659 0.929006 7.97896 0.660542 10.9298C0.483687 12.8673 0.956997 14.6184 2.30186 16.084C3.22558 17.0899 4.27144 17.2489 5.50307 16.6515C5.86441 16.4764 6.21049 16.2752 6.50313 16.0057C7.24363 15.3276 7.96759 14.6321 8.70682 13.9515C11.3546 11.516 15.0062 10.8876 18.2672 12.3196C19.4823 12.8536 20.4518 13.7131 21.3806 14.6247C22.1542 15.3835 22.8921 16.187 23.9087 16.6639C25.1047 17.2253 26.115 17.0887 27.012 16.1448C28.1978 14.8979 28.7462 13.3951 28.75 12.3233C28.7144 10.3089 28.5057 8.9452 28.0947 7.61755L28.096 7.62003ZM10.2871 8.4745C9.54657 8.4745 9.17632 8.84419 9.17632 9.58356C9.17632 10.2898 8.80903 10.643 8.07447 10.643C7.3399 10.643 6.97856 10.2646 6.99043 9.5078C6.99043 8.81893 6.63884 8.4745 5.93567 8.4745C5.16632 8.4745 4.78165 8.10067 4.78165 7.35301C4.78165 6.67325 5.13833 6.33337 5.85169 6.33337C6.61001 6.33337 6.98916 5.9732 6.98916 5.25287C6.98916 4.51929 7.36153 4.1525 8.10628 4.1525C8.81794 4.1525 9.17377 4.49486 9.17377 5.17959C9.17377 5.94878 9.57201 6.33337 10.3685 6.33337C11.0657 6.33337 11.4144 6.6836 11.4144 7.38406C11.4144 8.11102 11.0377 8.4745 10.2845 8.4745H10.2871ZM21.2534 3.88548C22.0155 3.86312 22.6733 4.49528 22.6746 5.25038C22.6746 5.99804 22.0804 6.59294 21.3208 6.60412C20.532 6.61653 19.8856 6.00798 19.8869 5.25535C19.8869 4.53999 20.5192 3.90659 21.2534 3.88548ZM17.687 7.41014C17.6832 6.66373 18.3461 6.02536 19.1095 6.03778C19.8627 6.05145 20.4722 6.65504 20.4747 7.39027C20.4785 8.15904 19.8512 8.7676 19.0649 8.75642C18.3206 8.74649 17.6908 8.13048 17.687 7.4089V7.41014ZM21.2877 10.9211C20.5396 10.9199 19.8742 10.2629 19.8856 9.53513C19.8971 8.77878 20.5256 8.1963 21.3195 8.20748C22.1109 8.21865 22.7 8.82225 22.6758 9.59723C22.6542 10.3113 22.013 10.9224 21.2877 10.9211ZM23.4723 8.76636C22.6975 8.75891 22.1033 8.14911 22.1147 7.37164C22.1249 6.60536 22.7598 6.0117 23.5372 6.03903C24.2663 6.06511 24.8961 6.69602 24.8974 7.40269C24.8974 8.12799 24.2243 8.77381 23.4723 8.76636Z" fill="#FCFCFC"/>
</svg>
