<svg width="26" height="22" viewBox="0 0 26 22" fill="none" xmlns="http://www.w3.org/2000/svg">
<mask id="mask0_116_9" style="mask-type:alpha" maskUnits="userSpaceOnUse" x="0" y="0" width="26" height="22">
<rect width="26" height="22" fill="#D9D9D9"/>
</mask>
<g mask="url(#mask0_116_9)">
<path d="M18.6978 11.9893C18.7467 9.54037 18.2299 7.20575 17.0613 5.02353C16.5766 4.11829 15.9645 3.29892 15.0782 2.70611C14.1341 2.07509 13.0282 2.12074 12.1927 2.82369C11.7915 3.16103 11.5214 3.58754 11.312 4.05301C10.7209 5.3664 9.74545 6.19377 8.23956 6.44777C6.53556 6.73453 4.87711 7.22674 3.18745 7.57888C2.32586 7.75854 1.81582 8.58927 1.85469 9.24585C1.86618 9.44231 1.79524 9.57521 1.62783 9.68854C1.24686 9.9461 0.986845 10.2814 0.866077 10.7302C0.665026 11.4781 0.645422 12.2256 0.856939 12.9616C1.15511 14.0006 1.72724 14.82 2.9232 15.0492C3.08655 15.0807 3.17315 15.1773 3.25165 15.3051C3.49683 15.7046 3.84441 15.9845 4.32821 16.0654C4.55375 16.103 4.66577 16.2088 4.75189 16.4079C5.3217 17.7259 5.90825 19.0372 6.48012 20.3544C6.56778 20.5563 6.69132 20.6198 6.90425 20.5648C7.44984 20.4238 7.9983 20.2939 8.54246 20.1474C8.9107 20.0486 8.95069 19.9668 8.80258 19.6239C8.56553 19.0769 8.31567 18.5354 8.07222 17.9912C8.01654 17.8671 7.98141 17.743 8.03033 17.6034C8.26642 16.9242 8.31423 16.2293 8.20786 15.5237C8.18389 15.3642 8.23775 15.2647 8.40328 15.2247C9.32126 15.0031 10.229 14.7343 11.1739 14.6301C11.9098 14.5486 12.5813 14.7158 13.2114 15.0905C13.6426 15.3473 14.0113 15.6768 14.4128 15.967C15.3776 16.6656 16.4999 16.6439 17.2929 15.9229C17.6588 15.5904 17.9355 15.199 18.1015 14.8007C18.5396 13.8725 18.6798 12.9362 18.6989 11.9892L18.6978 11.9893ZM16.2906 14.4114C16.0186 14.7739 15.7452 14.8203 15.3592 14.5619C14.9891 14.3147 14.7137 13.9847 14.4695 13.6263C13.5442 12.2681 13.0387 10.7612 12.7843 9.16825C12.6206 8.14301 12.5256 7.11233 12.6483 6.07426C12.7083 5.56562 12.82 5.06963 13.0544 4.60434C13.3614 3.9953 13.7868 3.90595 14.3087 4.36313C14.8684 4.85338 15.2701 5.46102 15.5963 6.109C16.5564 8.01268 17.021 10.0227 16.9291 12.1443C16.9019 12.7722 16.8225 13.3934 16.5399 13.9732C16.473 14.1282 16.3925 14.2746 16.2895 14.4114L16.2906 14.4114Z" fill="#FCFCFC"/>
<path d="M19.1364 3.95178C19.4596 4.21534 19.912 4.24446 20.2659 3.9886C20.9531 3.49222 21.6291 2.98176 22.3058 2.47216C22.4823 2.33908 22.5878 2.15719 22.6264 1.94245C22.6935 1.5741 22.4909 1.17894 22.1285 0.970663C21.8067 0.785662 21.3375 0.830096 20.9833 1.10012C20.3708 1.56676 19.7663 2.04336 19.1589 2.5165C19.0361 2.61204 18.9278 2.71972 18.8793 2.84955C18.6947 3.24267 18.8011 3.67868 19.1362 3.95224L19.1364 3.95178Z" fill="#FCFCFC"/>
<path d="M23.8186 13.2082C23.0471 12.9573 22.2705 12.7201 21.4908 12.4932C20.952 12.3363 20.4712 12.6063 20.2925 13.1387C20.1486 13.5672 20.4143 14.0841 20.8752 14.2321C21.6475 14.48 22.4233 14.719 23.2014 14.9518C23.6933 15.0993 24.1598 14.8885 24.3646 14.4468C24.6001 13.937 24.3697 13.3868 23.8188 13.2077L23.8186 13.2082Z" fill="#FCFCFC"/>
<path d="M25.0703 8.08187C25.3616 7.44974 24.8675 6.73205 24.1468 6.81128C23.2765 6.90711 22.4129 7.07271 21.5624 7.28015C21.0562 7.4038 20.7973 7.85539 20.8965 8.32408C20.9952 8.79145 21.4212 9.11785 21.9281 9.04224C22.7687 8.9168 23.6035 8.75321 24.4387 8.59364C24.7375 8.53666 24.953 8.35866 25.071 8.08161L25.0703 8.08187Z" fill="#FCFCFC"/>
<path d="M13.8065 7.29464C13.5943 7.24293 13.482 7.30833 13.4945 7.52497C13.5112 7.82519 13.526 8.12573 13.5583 8.42434C13.6684 9.43342 13.9153 10.4144 14.2408 11.3766C14.3325 11.6478 14.3984 11.6582 14.6111 11.4675C14.9125 11.197 15.1716 10.8959 15.3969 10.3998C15.5602 10.0454 15.6159 9.56351 15.4465 9.01069C15.1946 8.18676 14.7413 7.52378 13.806 7.29444L13.8065 7.29464Z" fill="#FCFCFC"/>
</g>
</svg>
