<svg width="17" height="20" viewBox="0 0 17 20" fill="none" xmlns="http://www.w3.org/2000/svg">
<path d="M16.7272 0.723494C16.7272 0.120149 16.6063 0.00129891 15.9971 0.00129891C11.9492 0 7.90058 0 3.852 0C3.32096 0 3.17334 0.146777 3.17334 0.679981C3.17334 6.0867 3.17334 11.4941 3.17334 16.9008C3.17334 17.3989 3.33766 17.5691 3.84131 17.5691C7.91193 17.571 11.9826 17.5704 16.0532 17.5691C16.5689 17.5691 16.7265 17.4113 16.7265 16.9112C16.7272 14.2075 16.7265 11.5045 16.7265 8.80078C16.7265 6.10813 16.7265 3.41549 16.7265 0.722845L16.7272 0.723494ZM4.69298 2.55496C4.69498 2.10943 4.85863 1.95162 5.31018 1.95097C6.86789 1.94967 8.4256 1.95097 9.98332 1.95097C11.519 1.95097 13.054 1.95097 14.5897 1.95097C15.0419 1.95097 15.2209 2.11268 15.2242 2.54847C15.2302 3.44601 15.2309 4.34421 15.2242 5.24241C15.2209 5.68599 15.0459 5.8464 14.5983 5.8464C11.505 5.8464 8.41225 5.8464 5.31887 5.8464C4.85997 5.8464 4.69498 5.69118 4.69298 5.24955C4.68964 4.35136 4.6903 3.45381 4.69298 2.55561V2.55496ZM14.6217 7.32716C14.8041 7.32716 14.9751 7.34015 15.1027 7.49083C15.3151 7.74087 15.2222 8.12145 14.9136 8.24679C14.788 8.2981 14.6551 8.2994 14.5209 8.2994C11.4869 8.29875 8.45299 8.2994 5.41973 8.2994C5.35293 8.2994 5.28614 8.30265 5.22001 8.2968C4.87934 8.26628 4.68763 8.07858 4.69632 7.78763C4.705 7.49083 4.89203 7.32911 5.25407 7.32846C6.5653 7.32521 7.87653 7.32716 9.18776 7.32716C9.45428 7.32716 9.72147 7.32716 9.98799 7.32716V7.32911C11.5323 7.32911 13.0774 7.32976 14.6217 7.32781V7.32716ZM5.22268 12.2065C5.75572 12.202 6.28876 12.2052 6.82114 12.2059C7.34282 12.2059 7.86451 12.2033 8.38686 12.2072C8.73488 12.2098 8.93527 12.3832 8.93994 12.6748C8.94462 12.9573 8.73421 13.1716 8.41024 13.1736C7.34483 13.1814 6.27874 13.182 5.21266 13.1736C4.89203 13.171 4.68095 12.9443 4.69431 12.6624C4.70767 12.3825 4.90072 12.2091 5.22268 12.2059V12.2065ZM8.91523 15.27C8.84776 15.4967 8.67543 15.6012 8.4423 15.6038C7.89924 15.609 7.35551 15.6051 6.81245 15.6051V15.6103C6.32416 15.6103 5.83654 15.6103 5.34826 15.6103C4.92075 15.6103 4.70233 15.4538 4.69431 15.1382C4.6863 14.8128 4.89404 14.6413 5.32154 14.64C6.31949 14.6368 7.31811 14.6394 8.31606 14.64C8.46034 14.64 8.60663 14.64 8.72953 14.729C8.9199 14.8667 8.98002 15.0518 8.91456 15.2707L8.91523 15.27ZM5.28213 10.7206C4.90806 10.7206 4.72237 10.579 4.69899 10.2887C4.67561 10.0055 4.82256 9.83796 5.09242 9.77107C5.1973 9.74509 5.31219 9.75028 5.42307 9.75028C8.43562 9.74963 11.4482 9.74963 14.4601 9.75028C14.5269 9.75028 14.5937 9.74834 14.6598 9.75223C15.0071 9.76912 15.2316 9.97435 15.2202 10.2627C15.2089 10.5472 15.0018 10.7212 14.6531 10.7219C13.086 10.7245 11.5183 10.7232 9.95125 10.7232V10.7219C8.39488 10.7219 6.8385 10.7232 5.2828 10.7212L5.28213 10.7206ZM15.2209 15.0927C15.2149 15.4376 15.0345 15.5999 14.6685 15.6019C13.3673 15.6103 12.0661 15.611 10.7648 15.6058C10.3981 15.6045 10.2058 15.422 10.2011 15.0661C10.1904 14.2874 10.1891 13.5087 10.2017 12.7306C10.2078 12.376 10.4068 12.2085 10.7769 12.2065C11.4328 12.2033 12.0894 12.2052 12.7454 12.2059C13.3793 12.2059 14.0132 12.2039 14.6471 12.2072C15.0272 12.2091 15.2135 12.3624 15.2202 12.7254C15.2342 13.5145 15.2342 14.3043 15.2209 15.0934V15.0927Z" fill="#FCFCFC"/>
<path d="M13.3613 18.5413C10.1904 18.5511 7.01886 18.5485 3.848 18.5472C2.7906 18.5472 2.17139 17.9425 2.17139 16.919C2.17139 12.7651 2.17139 8.61049 2.17139 4.45657C2.17139 3.89414 2.14934 3.33041 2.18007 2.76928C2.19677 2.46534 2.08856 2.40494 1.80868 2.42572C1.48805 2.4491 1.16342 2.42832 0.840785 2.43091C0.323106 2.43546 0.166801 2.58678 0.166801 3.08816C0.166133 5.80354 0.166801 8.51891 0.166801 11.2343C0.166801 13.9497 0.166801 16.665 0.166801 19.3804C0.166801 19.8454 0.325778 19.9993 0.802042 19.9993C2.58219 20 4.36233 19.9993 6.14248 19.9993C8.44565 19.9993 10.7488 20 13.052 20C13.565 20 13.7186 19.848 13.72 19.3408C13.72 19.1895 13.6999 19.0349 13.724 18.8868C13.7741 18.5868 13.6398 18.54 13.3599 18.5407L13.3613 18.5413Z" fill="#FCFCFC"/>
<path d="M5.68895 4.66635C5.68427 4.8456 5.75174 4.87937 5.9174 4.87612C6.37295 4.86638 6.82918 4.87287 7.2854 4.87287C9.48771 4.87287 11.6907 4.86703 13.893 4.88067C14.1795 4.88262 14.2423 4.80533 14.2283 4.54295C14.2043 4.10067 14.2103 3.65579 14.2283 3.21351C14.237 2.99919 14.1976 2.91671 13.9484 2.91931C12.6252 2.9323 11.3013 2.9258 9.97733 2.9258C8.63137 2.9258 7.2854 2.9284 5.93944 2.92256C5.76911 2.92191 5.68227 2.94074 5.68828 3.14272C5.70431 3.6506 5.70231 4.15912 5.68962 4.66765L5.68895 4.66635Z" fill="#FCFCFC"/>
<path d="M14.0185 13.1742C13.5743 13.1853 13.1301 13.1781 12.6859 13.1781C12.2638 13.1781 11.8416 13.1859 11.4201 13.1742C11.2431 13.1697 11.1903 13.2262 11.1957 13.3944C11.207 13.7392 11.205 14.0854 11.1963 14.4309C11.1923 14.5835 11.2444 14.64 11.4054 14.6387C12.2718 14.6335 13.1375 14.6316 14.0038 14.64C14.1902 14.642 14.2263 14.5686 14.2223 14.4108C14.2142 14.0653 14.2116 13.7198 14.2223 13.3743C14.2269 13.2184 14.1808 13.1697 14.0179 13.1736L14.0185 13.1742Z" fill="#FCFCFC"/>
</svg>
