<svg width="23" height="22" viewBox="0 0 23 22" fill="none" xmlns="http://www.w3.org/2000/svg">
<path d="M22.4439 20.7604C22.1591 20.6764 22.0167 20.6501 21.8898 20.5941C20.4676 19.9699 19.1929 20.0177 17.6438 20.6139C13.1371 22.3464 8.12946 19.1481 7.65426 14.5203C7.22194 10.3174 10.5209 6.49817 15.1511 6.51135C20.9994 6.52946 24.3893 12.2245 21.9824 16.9742C21.6033 17.7235 21.5243 18.3098 21.8589 19.0378C22.0956 19.5516 22.226 20.1099 22.4422 20.7588L22.4439 20.7604Z" fill="#FDFDFD"/>
<path d="M6.15524 14.4626C4.48431 12.9178 2.89401 13.6573 1.14759 14.3375C1.45124 13.435 1.66054 12.7169 1.93846 12.0236C2.11001 11.597 2.0534 11.2643 1.82523 10.874C-0.379231 7.10424 1.21965 2.49453 5.35065 0.646694C9.21918 -1.08256 13.9266 0.788329 15.5066 4.68492C15.5461 4.78374 15.5701 4.88749 15.6336 5.0983C12.9642 5.04066 10.6688 5.88717 8.82976 7.65101C6.98213 9.42309 6.05574 11.6168 6.15524 14.4626Z" fill="#FDFDFD"/>
</svg>
